<svg width="471" height="154" viewBox="0 0 471 154" fill="none" xmlns="http://www.w3.org/2000/svg">
<rect x="0.855804" y="141.825" width="469.288" height="11.5874" fill="black"/>
<rect x="0.855804" y="36.5734" width="469.288" height="11.5874" fill="black"/>
<path d="M24.4688 27.5304H28.2188C28.0234 29.3273 27.5091 30.9353 26.6758 32.3546C25.8424 33.7739 24.6641 34.9002 23.1406 35.7335C21.6172 36.5538 19.7161 36.964 17.4375 36.964C15.7708 36.964 14.2539 36.6515 12.8867 36.0265C11.5326 35.4015 10.3672 34.5161 9.39062 33.3702C8.41406 32.2114 7.65885 30.8247 7.125 29.2101C6.60417 27.5825 6.34375 25.7726 6.34375 23.7804V20.9484C6.34375 18.9562 6.60417 17.1528 7.125 15.5382C7.65885 13.9106 8.42057 12.5174 9.41016 11.3585C10.4128 10.1997 11.6172 9.30774 13.0234 8.68274C14.4297 8.05774 16.0117 7.74524 17.7695 7.74524C19.918 7.74524 21.7344 8.14889 23.2188 8.95618C24.7031 9.76347 25.8555 10.8833 26.6758 12.3156C27.5091 13.7348 28.0234 15.382 28.2188 17.257H24.4688C24.2865 15.9288 23.9479 14.7895 23.4531 13.839C22.9583 12.8754 22.2552 12.1333 21.3438 11.6124C20.4323 11.0916 19.2409 10.8312 17.7695 10.8312C16.5065 10.8312 15.3932 11.0721 14.4297 11.5538C13.4792 12.0356 12.6784 12.7192 12.0273 13.6046C11.3893 14.49 10.9076 15.5512 10.582 16.7882C10.2565 18.0252 10.0938 19.3989 10.0938 20.9093V23.7804C10.0938 25.1736 10.237 26.4822 10.5234 27.7062C10.8229 28.9301 11.2721 30.0044 11.8711 30.9288C12.4701 31.8533 13.2318 32.5825 14.1562 33.1163C15.0807 33.6372 16.1745 33.8976 17.4375 33.8976C19.0391 33.8976 20.3151 33.6437 21.2656 33.1359C22.2161 32.6281 22.9323 31.8989 23.4141 30.9484C23.9089 29.9978 24.2604 28.8585 24.4688 27.5304ZM55.25 21.4562V23.2531C55.25 25.3885 54.9831 27.3025 54.4492 28.9952C53.9154 30.6879 53.1471 32.1267 52.1445 33.3116C51.1419 34.4965 49.9375 35.4015 48.5312 36.0265C47.138 36.6515 45.5755 36.964 43.8438 36.964C42.1641 36.964 40.6211 36.6515 39.2148 36.0265C37.8216 35.4015 36.6107 34.4965 35.582 33.3116C34.5664 32.1267 33.7786 30.6879 33.2188 28.9952C32.6589 27.3025 32.3789 25.3885 32.3789 23.2531V21.4562C32.3789 19.3208 32.6523 17.4132 33.1992 15.7335C33.7591 14.0408 34.5469 12.602 35.5625 11.4171C36.5781 10.2192 37.7826 9.30774 39.1758 8.68274C40.582 8.05774 42.125 7.74524 43.8047 7.74524C45.5365 7.74524 47.099 8.05774 48.4922 8.68274C49.8984 9.30774 51.1029 10.2192 52.1055 11.4171C53.1211 12.602 53.8958 14.0408 54.4297 15.7335C54.9766 17.4132 55.25 19.3208 55.25 21.4562ZM51.5195 23.2531V21.4171C51.5195 19.7244 51.3438 18.227 50.9922 16.9249C50.6536 15.6228 50.1523 14.5291 49.4883 13.6437C48.8242 12.7583 48.0104 12.0877 47.0469 11.632C46.0964 11.1762 45.0156 10.9484 43.8047 10.9484C42.6328 10.9484 41.5716 11.1762 40.6211 11.632C39.6836 12.0877 38.8763 12.7583 38.1992 13.6437C37.5352 14.5291 37.0208 15.6228 36.6562 16.9249C36.2917 18.227 36.1094 19.7244 36.1094 21.4171V23.2531C36.1094 24.9588 36.2917 26.4692 36.6562 27.7843C37.0208 29.0864 37.5417 30.1866 38.2188 31.0851C38.9089 31.9705 39.7227 32.6411 40.6602 33.0968C41.6107 33.5525 42.6719 33.7804 43.8438 33.7804C45.0677 33.7804 46.1549 33.5525 47.1055 33.0968C48.056 32.6411 48.8568 31.9705 49.5078 31.0851C50.1719 30.1866 50.6732 29.0864 51.0117 27.7843C51.3503 26.4692 51.5195 24.9588 51.5195 23.2531ZM78.0625 27.5304H81.8125C81.6172 29.3273 81.1029 30.9353 80.2695 32.3546C79.4362 33.7739 78.2578 34.9002 76.7344 35.7335C75.2109 36.5538 73.3099 36.964 71.0312 36.964C69.3646 36.964 67.8477 36.6515 66.4805 36.0265C65.1263 35.4015 63.9609 34.5161 62.9844 33.3702C62.0078 32.2114 61.2526 30.8247 60.7188 29.2101C60.1979 27.5825 59.9375 25.7726 59.9375 23.7804V20.9484C59.9375 18.9562 60.1979 17.1528 60.7188 15.5382C61.2526 13.9106 62.0143 12.5174 63.0039 11.3585C64.0065 10.1997 65.2109 9.30774 66.6172 8.68274C68.0234 8.05774 69.6055 7.74524 71.3633 7.74524C73.5117 7.74524 75.3281 8.14889 76.8125 8.95618C78.2969 9.76347 79.4492 10.8833 80.2695 12.3156C81.1029 13.7348 81.6172 15.382 81.8125 17.257H78.0625C77.8802 15.9288 77.5417 14.7895 77.0469 13.839C76.5521 12.8754 75.849 12.1333 74.9375 11.6124C74.026 11.0916 72.8346 10.8312 71.3633 10.8312C70.1003 10.8312 68.987 11.0721 68.0234 11.5538C67.0729 12.0356 66.2721 12.7192 65.6211 13.6046C64.9831 14.49 64.5013 15.5512 64.1758 16.7882C63.8503 18.0252 63.6875 19.3989 63.6875 20.9093V23.7804C63.6875 25.1736 63.8307 26.4822 64.1172 27.7062C64.4167 28.9301 64.8659 30.0044 65.4648 30.9288C66.0638 31.8533 66.8255 32.5825 67.75 33.1163C68.6745 33.6372 69.7682 33.8976 71.0312 33.8976C72.6328 33.8976 73.9089 33.6437 74.8594 33.1359C75.8099 32.6281 76.526 31.8989 77.0078 30.9484C77.5026 29.9978 77.8542 28.8585 78.0625 27.5304ZM90.7188 8.13586V36.5734H86.9492V8.13586H90.7188ZM107.887 8.13586L96.0703 21.3976L89.4297 28.2921L88.8047 24.2687L93.8047 18.7609L103.355 8.13586H107.887ZM104.254 36.5734L93.7266 22.7062L95.9727 19.7179L108.746 36.5734H104.254ZM122.574 8.13586V36.5734H118.863V8.13586H122.574ZM131.715 8.13586V11.2218H109.742V8.13586H131.715ZM144.898 10.6554L135.484 36.5734H131.637L142.477 8.13586H144.957L144.898 10.6554ZM152.789 36.5734L143.355 10.6554L143.297 8.13586H145.777L156.656 36.5734H152.789ZM152.301 26.046V29.132H136.324V26.046H152.301ZM164.508 8.13586V36.5734H160.738V8.13586H164.508ZM188.609 33.507V36.5734H174.391V33.507H188.609ZM175.133 8.13586V36.5734H171.363V8.13586H175.133ZM220.016 27.5304H223.766C223.57 29.3273 223.056 30.9353 222.223 32.3546C221.389 33.7739 220.211 34.9002 218.688 35.7335C217.164 36.5538 215.263 36.964 212.984 36.964C211.318 36.964 209.801 36.6515 208.434 36.0265C207.079 35.4015 205.914 34.5161 204.938 33.3702C203.961 32.2114 203.206 30.8247 202.672 29.2101C202.151 27.5825 201.891 25.7726 201.891 23.7804V20.9484C201.891 18.9562 202.151 17.1528 202.672 15.5382C203.206 13.9106 203.967 12.5174 204.957 11.3585C205.96 10.1997 207.164 9.30774 208.57 8.68274C209.977 8.05774 211.559 7.74524 213.316 7.74524C215.465 7.74524 217.281 8.14889 218.766 8.95618C220.25 9.76347 221.402 10.8833 222.223 12.3156C223.056 13.7348 223.57 15.382 223.766 17.257H220.016C219.833 15.9288 219.495 14.7895 219 13.839C218.505 12.8754 217.802 12.1333 216.891 11.6124C215.979 11.0916 214.788 10.8312 213.316 10.8312C212.053 10.8312 210.94 11.0721 209.977 11.5538C209.026 12.0356 208.225 12.7192 207.574 13.6046C206.936 14.49 206.454 15.5512 206.129 16.7882C205.803 18.0252 205.641 19.3989 205.641 20.9093V23.7804C205.641 25.1736 205.784 26.4822 206.07 27.7062C206.37 28.9301 206.819 30.0044 207.418 30.9288C208.017 31.8533 208.779 32.5825 209.703 33.1163C210.628 33.6372 211.721 33.8976 212.984 33.8976C214.586 33.8976 215.862 33.6437 216.812 33.1359C217.763 32.6281 218.479 31.8989 218.961 30.9484C219.456 29.9978 219.807 28.8585 220.016 27.5304ZM250.797 21.4562V23.2531C250.797 25.3885 250.53 27.3025 249.996 28.9952C249.462 30.6879 248.694 32.1267 247.691 33.3116C246.689 34.4965 245.484 35.4015 244.078 36.0265C242.685 36.6515 241.122 36.964 239.391 36.964C237.711 36.964 236.168 36.6515 234.762 36.0265C233.368 35.4015 232.158 34.4965 231.129 33.3116C230.113 32.1267 229.326 30.6879 228.766 28.9952C228.206 27.3025 227.926 25.3885 227.926 23.2531V21.4562C227.926 19.3208 228.199 17.4132 228.746 15.7335C229.306 14.0408 230.094 12.602 231.109 11.4171C232.125 10.2192 233.329 9.30774 234.723 8.68274C236.129 8.05774 237.672 7.74524 239.352 7.74524C241.083 7.74524 242.646 8.05774 244.039 8.68274C245.445 9.30774 246.65 10.2192 247.652 11.4171C248.668 12.602 249.443 14.0408 249.977 15.7335C250.523 17.4132 250.797 19.3208 250.797 21.4562ZM247.066 23.2531V21.4171C247.066 19.7244 246.891 18.227 246.539 16.9249C246.201 15.6228 245.699 14.5291 245.035 13.6437C244.371 12.7583 243.557 12.0877 242.594 11.632C241.643 11.1762 240.562 10.9484 239.352 10.9484C238.18 10.9484 237.118 11.1762 236.168 11.632C235.23 12.0877 234.423 12.7583 233.746 13.6437C233.082 14.5291 232.568 15.6228 232.203 16.9249C231.839 18.227 231.656 19.7244 231.656 21.4171V23.2531C231.656 24.9588 231.839 26.4692 232.203 27.7843C232.568 29.0864 233.089 30.1866 233.766 31.0851C234.456 31.9705 235.27 32.6411 236.207 33.0968C237.158 33.5525 238.219 33.7804 239.391 33.7804C240.615 33.7804 241.702 33.5525 242.652 33.0968C243.603 32.6411 244.404 31.9705 245.055 31.0851C245.719 30.1866 246.22 29.0864 246.559 27.7843C246.897 26.4692 247.066 24.9588 247.066 23.2531ZM257.633 8.13586H261.285L270.602 31.3195L279.898 8.13586H283.57L272.008 36.5734H269.156L257.633 8.13586ZM256.441 8.13586H259.664L260.191 25.4796V36.5734H256.441V8.13586ZM281.52 8.13586H284.742V36.5734H280.992V25.4796L281.52 8.13586ZM301.852 25.421H294.254V22.3546H301.852C303.323 22.3546 304.514 22.1202 305.426 21.6515C306.337 21.1827 307.001 20.5317 307.418 19.6984C307.848 18.865 308.062 17.9145 308.062 16.8468C308.062 15.8702 307.848 14.9523 307.418 14.0929C307.001 13.2335 306.337 12.5434 305.426 12.0226C304.514 11.4887 303.323 11.2218 301.852 11.2218H295.133V36.5734H291.363V8.13586H301.852C304 8.13586 305.816 8.50696 307.301 9.24915C308.785 9.99133 309.911 11.02 310.68 12.3351C311.448 13.6372 311.832 15.1281 311.832 16.8077C311.832 18.6307 311.448 20.1866 310.68 21.4757C309.911 22.7648 308.785 23.7478 307.301 24.4249C305.816 25.089 304 25.421 301.852 25.421ZM334.664 33.507V36.5734H319.605V33.507H334.664ZM320.367 8.13586V36.5734H316.598V8.13586H320.367ZM332.672 20.3624V23.4288H319.605V20.3624H332.672ZM334.469 8.13586V11.2218H319.605V8.13586H334.469ZM361.207 8.13586V36.5734H357.418L343.102 14.6398V36.5734H339.332V8.13586H343.102L357.477 30.1281V8.13586H361.207ZM375.582 36.5734H369.645L369.684 33.507H375.582C377.613 33.507 379.306 33.0838 380.66 32.2374C382.014 31.3781 383.03 30.1801 383.707 28.6437C384.397 27.0942 384.742 25.2843 384.742 23.214V21.4757C384.742 19.8481 384.547 18.4028 384.156 17.1398C383.766 15.8637 383.193 14.7895 382.438 13.9171C381.682 13.0317 380.758 12.3611 379.664 11.9054C378.583 11.4497 377.34 11.2218 375.934 11.2218H369.527V8.13586H375.934C377.796 8.13586 379.495 8.44836 381.031 9.07336C382.568 9.68534 383.889 10.5773 384.996 11.7491C386.116 12.908 386.975 14.3142 387.574 15.9679C388.173 17.6085 388.473 19.4575 388.473 21.5148V23.214C388.473 25.2713 388.173 27.1267 387.574 28.7804C386.975 30.421 386.109 31.8208 384.977 32.9796C383.857 34.1385 382.503 35.0304 380.914 35.6554C379.339 36.2674 377.561 36.5734 375.582 36.5734ZM371.656 8.13586V36.5734H367.887V8.13586H371.656ZM398.18 8.13586V36.5734H394.41V8.13586H398.18ZM421.305 8.13586H425.055V27.3741C425.055 29.5096 424.579 31.2869 423.629 32.7062C422.678 34.1254 421.415 35.1932 419.84 35.9093C418.277 36.6124 416.578 36.964 414.742 36.964C412.815 36.964 411.07 36.6124 409.508 35.9093C407.958 35.1932 406.728 34.1254 405.816 32.7062C404.918 31.2869 404.469 29.5096 404.469 27.3741V8.13586H408.199V27.3741C408.199 28.8585 408.473 30.0825 409.02 31.046C409.566 32.0096 410.328 32.7257 411.305 33.1945C412.294 33.6632 413.44 33.8976 414.742 33.8976C416.057 33.8976 417.203 33.6632 418.18 33.1945C419.169 32.7257 419.938 32.0096 420.484 31.046C421.031 30.0825 421.305 28.8585 421.305 27.3741V8.13586ZM432.164 8.13586H435.816L445.133 31.3195L454.43 8.13586H458.102L446.539 36.5734H443.688L432.164 8.13586ZM430.973 8.13586H434.195L434.723 25.4796V36.5734H430.973V8.13586ZM456.051 8.13586H459.273V36.5734H455.523V25.4796L456.051 8.13586Z" fill="white"/>
<rect x="54.75" y="81.4126" width="7.5" height="60.4126" fill="white"/>
<path d="M58.5 87.0714L11.3016 46.79L105.698 46.79L58.5 87.0714Z" fill="white"/>
<path d="M58.5 130.285L80.4754 143.286H36.5246L58.5 130.285Z" fill="white"/>
<path d="M58.5 82.6368L19.0958 49.0073L97.9042 49.0073L58.5 82.6368Z" fill="#878787"/>
<rect x="163.75" y="81.4126" width="7.5" height="60.4126" fill="white"/>
<path d="M167.5 87.0714L120.302 46.79L214.698 46.79L167.5 87.0714Z" fill="white"/>
<path d="M167.5 130.285L189.475 143.286H145.525L167.5 130.285Z" fill="white"/>
<path d="M167.5 82.6368L128.096 49.0073L206.904 49.0073L167.5 82.6368Z" fill="#878787"/>
<rect x="272.75" y="81.4126" width="7.5" height="60.4126" fill="white"/>
<path d="M276.5 87.0714L229.302 46.79L323.698 46.79L276.5 87.0714Z" fill="white"/>
<path d="M276.5 130.285L298.475 143.286H254.525L276.5 130.285Z" fill="white"/>
<path d="M276.5 82.6368L237.096 49.0073L315.904 49.0073L276.5 82.6368Z" fill="#878787"/>
<rect x="390.75" y="81.4126" width="7.5" height="60.4126" fill="white"/>
<path d="M394.5 87.0714L347.302 46.79L441.698 46.79L394.5 87.0714Z" fill="white"/>
<path d="M394.5 130.285L416.475 143.286H372.525L394.5 130.285Z" fill="white"/>
<path d="M394.5 82.6368L355.096 49.0073L433.904 49.0073L394.5 82.6368Z" fill="#878787"/>
</svg>
