<svg width="471" height="156" viewBox="0 0 471 156" fill="none" xmlns="http://www.w3.org/2000/svg">
<rect width="471" height="156" fill="#1E1E1E"/>
<rect x="0.855804" y="143.825" width="469.288" height="11.5874" fill="black"/>
<rect x="0.855804" y="38.5734" width="469.288" height="11.5874" fill="black"/>
<path d="M24.9066 24.7374H29.3128C29.0833 26.8487 28.479 28.7382 27.4998 30.4058C26.5207 32.0735 25.1361 33.3969 23.346 34.376C21.556 35.3399 19.3223 35.8218 16.6449 35.8218C14.6865 35.8218 12.9041 35.4547 11.2977 34.7203C9.70655 33.9859 8.33725 32.9455 7.18979 31.5992C6.04233 30.2375 5.15496 28.6081 4.52768 26.711C3.9157 24.7986 3.60971 22.6719 3.60971 20.3311V17.0035C3.60971 14.6627 3.9157 12.5437 4.52768 10.6465C5.15496 8.73411 6.04998 7.09707 7.21274 5.73541C8.3908 4.37376 9.806 3.32574 11.4583 2.59137C13.1107 1.85699 14.9696 1.48981 17.035 1.48981C19.5594 1.48981 21.6937 1.96409 23.4378 2.91266C25.182 3.86123 26.536 5.17698 27.4998 6.85992C28.479 8.52757 29.0833 10.463 29.3128 12.6661H24.9066C24.6924 11.1055 24.2946 9.76683 23.7132 8.64996C23.1318 7.5178 22.3057 6.64573 21.2347 6.03375C20.1637 5.42177 18.7638 5.11578 17.035 5.11578C15.551 5.11578 14.2428 5.39882 13.1107 5.9649C11.9938 6.53099 11.0529 7.33421 10.2879 8.37457C9.53826 9.41494 8.97218 10.6618 8.58969 12.1153C8.2072 13.5687 8.01596 15.1828 8.01596 16.9576V20.3311C8.01596 21.9682 8.18425 23.5058 8.52084 24.9439C8.87273 26.3821 9.40056 27.6443 10.1043 28.7305C10.8081 29.8168 11.7031 30.6736 12.7894 31.3008C13.8757 31.9128 15.1608 32.2188 16.6449 32.2188C18.5267 32.2188 20.0261 31.9205 21.1429 31.3238C22.2598 30.7271 23.1012 29.8703 23.6673 28.7535C24.2487 27.6366 24.6618 26.2979 24.9066 24.7374ZM33.5814 23.2227V22.6949C33.5814 20.9048 33.8415 19.2449 34.3617 17.7149C34.8818 16.1697 35.6315 14.831 36.6107 13.6988C37.5899 12.5513 38.7756 11.664 40.1678 11.0367C41.5601 10.3941 43.1206 10.0728 44.8495 10.0728C46.5936 10.0728 48.1618 10.3941 49.554 11.0367C50.9616 11.664 52.155 12.5513 53.1341 13.6988C54.1286 14.831 54.8859 16.1697 55.4061 17.7149C55.9263 19.2449 56.1864 20.9048 56.1864 22.6949V23.2227C56.1864 25.0128 55.9263 26.6727 55.4061 28.2027C54.8859 29.7326 54.1286 31.0714 53.1341 32.2188C52.155 33.351 50.9692 34.2383 49.577 34.8809C48.2 35.5082 46.6395 35.8218 44.8954 35.8218C43.1512 35.8218 41.583 35.5082 40.1908 34.8809C38.7985 34.2383 37.6052 33.351 36.6107 32.2188C35.6315 31.0714 34.8818 29.7326 34.3617 28.2027C33.8415 26.6727 33.5814 25.0128 33.5814 23.2227ZM37.827 22.6949V23.2227C37.827 24.462 37.9723 25.6324 38.263 26.7339C38.5537 27.8202 38.9898 28.7841 39.5711 29.6255C40.1678 30.467 40.9098 31.1325 41.7972 31.6221C42.6846 32.0964 43.7173 32.3336 44.8954 32.3336C46.0581 32.3336 47.0755 32.0964 47.9476 31.6221C48.835 31.1325 49.5693 30.467 50.1507 29.6255C50.7321 28.7841 51.1681 27.8202 51.4588 26.7339C51.7648 25.6324 51.9178 24.462 51.9178 23.2227V22.6949C51.9178 21.4709 51.7648 20.3158 51.4588 19.2296C51.1681 18.128 50.7245 17.1565 50.1278 16.315C49.5464 15.4582 48.812 14.7851 47.9247 14.2955C47.0526 13.8059 46.0275 13.5611 44.8495 13.5611C43.6867 13.5611 42.6616 13.8059 41.7743 14.2955C40.9022 14.7851 40.1678 15.4582 39.5711 16.315C38.9898 17.1565 38.5537 18.128 38.263 19.2296C37.9723 20.3158 37.827 21.4709 37.827 22.6949ZM71.4476 32.3336C72.4574 32.3336 73.3906 32.127 74.2474 31.7139C75.1042 31.3008 75.808 30.7348 76.3587 30.0157C76.9095 29.2813 77.2232 28.4475 77.2997 27.5142H81.3387C81.2622 28.983 80.765 30.3523 79.847 31.6221C78.9443 32.8767 77.7586 33.8941 76.2899 34.6744C74.8211 35.4394 73.207 35.8218 71.4476 35.8218C69.5811 35.8218 67.9517 35.4929 66.5594 34.835C65.1825 34.1771 64.035 33.2745 63.117 32.127C62.2144 30.9796 61.5335 29.6638 61.0746 28.1797C60.6309 26.6804 60.409 25.0969 60.409 23.4293V22.4654C60.409 20.7977 60.6309 19.2219 61.0746 17.7379C61.5335 16.2385 62.2144 14.9151 63.117 13.7676C64.035 12.6202 65.1825 11.7175 66.5594 11.0596C67.9517 10.4018 69.5811 10.0728 71.4476 10.0728C73.3906 10.0728 75.0889 10.4706 76.5423 11.2662C77.9958 12.0464 79.1356 13.1174 79.9618 14.4791C80.8032 15.8254 81.2622 17.3554 81.3387 19.0689H77.2997C77.2232 18.0438 76.9325 17.1182 76.4276 16.2921C75.938 15.4659 75.2648 14.808 74.4081 14.3184C73.5666 13.8135 72.5798 13.5611 71.4476 13.5611C70.1471 13.5611 69.0532 13.8212 68.1659 14.3414C67.2938 14.8463 66.5977 15.5347 66.0775 16.4068C65.5726 17.2636 65.2054 18.2198 64.9759 19.2755C64.7617 20.3158 64.6546 21.3791 64.6546 22.4654V23.4293C64.6546 24.5155 64.7617 25.5865 64.9759 26.6422C65.1901 27.6978 65.5497 28.654 66.0545 29.5108C66.5747 30.3676 67.2708 31.0561 68.1429 31.5762C69.0303 32.0811 70.1318 32.3336 71.4476 32.3336ZM90.3807 0.112854V35.3629H86.1122V0.112854H90.3807ZM105.55 10.5318L94.7181 22.1212L88.6595 28.4092L88.3153 23.8882L92.6527 18.7017L100.364 10.5318H105.55ZM101.672 35.3629L92.8133 23.5211L95.0164 19.7344L106.675 35.3629H101.672ZM120.329 10.5318V13.7906H106.904V10.5318H120.329ZM111.448 4.49615H115.694V29.2125C115.694 30.0539 115.824 30.6889 116.084 31.1172C116.344 31.5456 116.681 31.8287 117.094 31.9664C117.507 32.1041 117.95 32.1729 118.425 32.1729C118.777 32.1729 119.144 32.1423 119.526 32.0811C119.924 32.0046 120.222 31.9434 120.421 31.8975L120.444 35.3629C120.108 35.47 119.664 35.5694 119.113 35.6612C118.578 35.7683 117.927 35.8218 117.162 35.8218C116.122 35.8218 115.166 35.6153 114.294 35.2022C113.422 34.7891 112.726 34.1006 112.205 33.1368C111.701 32.1576 111.448 30.8419 111.448 29.1895V4.49615ZM139.951 31.1172V18.3345C139.951 17.3554 139.752 16.5062 139.354 15.7872C138.972 15.0528 138.39 14.4867 137.61 14.0889C136.83 13.6911 135.866 13.4922 134.719 13.4922C133.648 13.4922 132.707 13.6758 131.896 14.043C131.1 14.4102 130.473 14.8922 130.014 15.4888C129.57 16.0855 129.348 16.7281 129.348 17.4166H125.103C125.103 16.5292 125.332 15.6495 125.791 14.7774C126.25 13.9053 126.908 13.1174 127.765 12.4136C128.637 11.6946 129.677 11.1285 130.886 10.7154C132.11 10.287 133.472 10.0728 134.971 10.0728C136.776 10.0728 138.368 10.3788 139.744 10.9908C141.137 11.6028 142.223 12.5284 143.003 13.7676C143.799 14.9916 144.197 16.5292 144.197 18.3804V29.9468C144.197 30.773 144.265 31.6527 144.403 32.586C144.556 33.5193 144.778 34.3225 145.069 34.9957V35.3629H140.639C140.425 34.8733 140.257 34.223 140.135 33.4122C140.012 32.586 139.951 31.821 139.951 31.1172ZM140.685 20.3082L140.731 23.2916H136.44C135.231 23.2916 134.153 23.391 133.204 23.5899C132.255 23.7735 131.46 24.0565 130.817 24.439C130.175 24.8215 129.685 25.3034 129.348 25.8848C129.012 26.4509 128.844 27.1164 128.844 27.8814C128.844 28.6617 129.02 29.3731 129.371 30.0157C129.723 30.6583 130.251 31.1708 130.955 31.5533C131.674 31.9205 132.554 32.1041 133.594 32.1041C134.895 32.1041 136.042 31.8287 137.036 31.2779C138.031 30.7271 138.819 30.0539 139.4 29.2584C139.997 28.4628 140.318 27.6902 140.364 26.9405L142.177 28.983C142.07 29.6255 141.779 30.337 141.305 31.1172C140.831 31.8975 140.196 32.6472 139.4 33.3663C138.62 34.07 137.687 34.6591 136.6 35.1334C135.529 35.5923 134.321 35.8218 132.974 35.8218C131.292 35.8218 129.815 35.4929 128.545 34.835C127.291 34.1771 126.312 33.2974 125.608 32.1959C124.919 31.079 124.575 29.8321 124.575 28.4551C124.575 27.1241 124.835 25.9537 125.355 24.9439C125.875 23.9188 126.625 23.0697 127.604 22.3965C128.584 21.7081 129.762 21.1879 131.139 20.836C132.515 20.4841 134.053 20.3082 135.751 20.3082H140.685ZM155.488 10.5318V35.3629H151.219V10.5318H155.488ZM150.898 3.94537C150.898 3.2569 151.104 2.67552 151.517 2.20123C151.946 1.72695 152.573 1.48981 153.399 1.48981C154.21 1.48981 154.83 1.72695 155.258 2.20123C155.702 2.67552 155.924 3.2569 155.924 3.94537C155.924 4.60325 155.702 5.16933 155.258 5.64362C154.83 6.1026 154.21 6.33209 153.399 6.33209C152.573 6.33209 151.946 6.1026 151.517 5.64362C151.104 5.16933 150.898 4.60325 150.898 3.94537ZM166.916 0.112854V35.3629H162.648V0.112854H166.916ZM206.205 24.7374H210.612C210.382 26.8487 209.778 28.7382 208.799 30.4058C207.82 32.0735 206.435 33.3969 204.645 34.376C202.855 35.3399 200.621 35.8218 197.944 35.8218C195.985 35.8218 194.203 35.4547 192.597 34.7203C191.005 33.9859 189.636 32.9455 188.489 31.5992C187.341 30.2375 186.454 28.6081 185.827 26.711C185.215 24.7986 184.909 22.6719 184.909 20.3311V17.0035C184.909 14.6627 185.215 12.5437 185.827 10.6465C186.454 8.73411 187.349 7.09707 188.512 5.73541C189.69 4.37376 191.105 3.32574 192.757 2.59137C194.41 1.85699 196.268 1.48981 198.334 1.48981C200.858 1.48981 202.993 1.96409 204.737 2.91266C206.481 3.86123 207.835 5.17698 208.799 6.85992C209.778 8.52757 210.382 10.463 210.612 12.6661H206.205C205.991 11.1055 205.593 9.76683 205.012 8.64996C204.431 7.5178 203.605 6.64573 202.534 6.03375C201.463 5.42177 200.063 5.11578 198.334 5.11578C196.85 5.11578 195.542 5.39882 194.41 5.9649C193.293 6.53099 192.352 7.33421 191.587 8.37457C190.837 9.41494 190.271 10.6618 189.889 12.1153C189.506 13.5687 189.315 15.1828 189.315 16.9576V20.3311C189.315 21.9682 189.483 23.5058 189.82 24.9439C190.172 26.3821 190.699 27.6443 191.403 28.7305C192.107 29.8168 193.002 30.6736 194.088 31.3008C195.174 31.9128 196.46 32.2188 197.944 32.2188C199.826 32.2188 201.325 31.9205 202.442 31.3238C203.559 30.7271 204.4 29.8703 204.966 28.7535C205.548 27.6366 205.961 26.2979 206.205 24.7374ZM214.88 23.2227V22.6949C214.88 20.9048 215.14 19.2449 215.66 17.7149C216.181 16.1697 216.93 14.831 217.91 13.6988C218.889 12.5513 220.074 11.664 221.467 11.0367C222.859 10.3941 224.419 10.0728 226.148 10.0728C227.892 10.0728 229.461 10.3941 230.853 11.0367C232.26 11.664 233.454 12.5513 234.433 13.6988C235.427 14.831 236.185 16.1697 236.705 17.7149C237.225 19.2449 237.485 20.9048 237.485 22.6949V23.2227C237.485 25.0128 237.225 26.6727 236.705 28.2027C236.185 29.7326 235.427 31.0714 234.433 32.2188C233.454 33.351 232.268 34.2383 230.876 34.8809C229.499 35.5082 227.938 35.8218 226.194 35.8218C224.45 35.8218 222.882 35.5082 221.49 34.8809C220.097 34.2383 218.904 33.351 217.91 32.2188C216.93 31.0714 216.181 29.7326 215.66 28.2027C215.14 26.6727 214.88 25.0128 214.88 23.2227ZM219.126 22.6949V23.2227C219.126 24.462 219.271 25.6324 219.562 26.7339C219.853 27.8202 220.289 28.7841 220.87 29.6255C221.467 30.467 222.209 31.1325 223.096 31.6221C223.983 32.0964 225.016 32.3336 226.194 32.3336C227.357 32.3336 228.374 32.0964 229.246 31.6221C230.134 31.1325 230.868 30.467 231.45 29.6255C232.031 28.7841 232.467 27.8202 232.758 26.7339C233.064 25.6324 233.217 24.462 233.217 23.2227V22.6949C233.217 21.4709 233.064 20.3158 232.758 19.2296C232.467 18.128 232.023 17.1565 231.427 16.315C230.845 15.4582 230.111 14.7851 229.223 14.2955C228.351 13.8059 227.326 13.5611 226.148 13.5611C224.986 13.5611 223.96 13.8059 223.073 14.2955C222.201 14.7851 221.467 15.4582 220.87 16.315C220.289 17.1565 219.853 18.128 219.562 19.2296C219.271 20.3158 219.126 21.4709 219.126 22.6949ZM247.032 15.4659V35.3629H242.764V10.5318H246.803L247.032 15.4659ZM246.16 22.0064L244.186 21.9376C244.202 20.2393 244.424 18.6711 244.852 17.233C245.28 15.7795 245.915 14.5173 246.757 13.4464C247.598 12.3754 248.646 11.5492 249.901 10.9678C251.155 10.3712 252.609 10.0728 254.261 10.0728C255.424 10.0728 256.495 10.2411 257.474 10.5777C258.453 10.899 259.302 11.4115 260.021 12.1153C260.74 12.8191 261.299 13.7217 261.697 14.8233C262.094 15.9249 262.293 17.2559 262.293 18.8165V35.3629H258.048V19.023C258.048 17.7226 257.826 16.6822 257.382 15.9019C256.954 15.1216 256.342 14.5556 255.546 14.2037C254.751 13.8365 253.817 13.6529 252.746 13.6529C251.492 13.6529 250.444 13.8747 249.602 14.3184C248.761 14.7621 248.088 15.3741 247.583 16.1544C247.078 16.9346 246.711 17.8297 246.481 18.8394C246.267 19.8339 246.16 20.8895 246.16 22.0064ZM262.247 19.6656L259.402 20.5377C259.417 19.176 259.639 17.8679 260.067 16.6133C260.511 15.3588 261.146 14.2419 261.972 13.2628C262.813 12.2836 263.846 11.511 265.07 10.9449C266.294 10.3635 267.694 10.0728 269.27 10.0728C270.601 10.0728 271.779 10.2488 272.804 10.6006C273.844 10.9525 274.716 11.4957 275.42 12.23C276.139 12.9491 276.682 13.8747 277.05 15.0069C277.417 16.1391 277.6 17.4854 277.6 19.046V35.3629H273.332V19.0001C273.332 17.6078 273.11 16.5292 272.666 15.7642C272.238 14.9839 271.626 14.4408 270.83 14.1348C270.05 13.8135 269.117 13.6529 268.031 13.6529C267.097 13.6529 266.271 13.8135 265.552 14.1348C264.833 14.4561 264.229 14.8998 263.739 15.4659C263.25 16.0167 262.875 16.6516 262.615 17.3707C262.37 18.0897 262.247 18.8547 262.247 19.6656ZM288.272 15.3052V44.9097H284.003V10.5318H287.905L288.272 15.3052ZM305.002 22.7408V23.2227C305.002 25.0281 304.788 26.7033 304.359 28.2486C303.931 29.7785 303.304 31.1096 302.477 32.2418C301.667 33.3739 300.664 34.2536 299.471 34.8809C298.278 35.5082 296.908 35.8218 295.363 35.8218C293.787 35.8218 292.395 35.5617 291.186 35.0416C289.978 34.5214 288.953 33.7641 288.111 32.7696C287.27 31.7751 286.597 30.5818 286.092 29.1895C285.602 27.7973 285.265 26.2291 285.082 24.4849V21.9146C285.265 20.0787 285.61 18.434 286.115 16.9805C286.619 15.5271 287.285 14.2878 288.111 13.2628C288.953 12.2224 289.97 11.4345 291.163 10.899C292.357 10.3482 293.734 10.0728 295.294 10.0728C296.855 10.0728 298.239 10.3788 299.448 10.9908C300.657 11.5875 301.674 12.4442 302.5 13.5611C303.327 14.678 303.946 16.0167 304.359 17.5772C304.788 19.1225 305.002 20.8436 305.002 22.7408ZM300.733 23.2227V22.7408C300.733 21.5015 300.603 20.3388 300.343 19.2525C300.083 18.1509 299.678 17.1871 299.127 16.3609C298.591 15.5194 297.903 14.8616 297.061 14.3873C296.22 13.8977 295.218 13.6529 294.055 13.6529C292.984 13.6529 292.051 13.8365 291.255 14.2037C290.475 14.5709 289.809 15.0681 289.259 15.6954C288.708 16.3074 288.257 17.0111 287.905 17.8067C287.568 18.587 287.316 19.3978 287.147 20.2393V26.1832C287.453 27.2541 287.882 28.2639 288.432 29.2125C288.983 30.1457 289.718 30.9031 290.636 31.4844C291.554 32.0505 292.709 32.3336 294.101 32.3336C295.248 32.3336 296.235 32.0964 297.061 31.6221C297.903 31.1325 298.591 30.467 299.127 29.6255C299.678 28.7841 300.083 27.8202 300.343 26.7339C300.603 25.6324 300.733 24.462 300.733 23.2227ZM320.722 35.8218C318.993 35.8218 317.425 35.5311 316.017 34.9498C314.625 34.3531 313.424 33.5193 312.414 32.4483C311.42 31.3773 310.655 30.1075 310.119 28.6387C309.584 27.17 309.316 25.5635 309.316 23.8194V22.8555C309.316 20.836 309.615 19.0383 310.211 17.4625C310.808 15.8713 311.619 14.525 312.644 13.4234C313.669 12.3218 314.832 11.488 316.132 10.9219C317.433 10.3559 318.779 10.0728 320.171 10.0728C321.946 10.0728 323.476 10.3788 324.761 10.9908C326.062 11.6028 327.125 12.4595 327.951 13.5611C328.777 14.6474 329.389 15.9325 329.787 17.4166C330.185 18.8853 330.384 20.4918 330.384 22.2359V24.1407H311.841V20.6754H326.138V20.3541C326.077 19.2525 325.847 18.1815 325.45 17.1412C325.067 16.1008 324.455 15.244 323.614 14.5709C322.772 13.8977 321.625 13.5611 320.171 13.5611C319.207 13.5611 318.32 13.7676 317.509 14.1807C316.698 14.5785 316.002 15.1752 315.421 15.9708C314.839 16.7663 314.388 17.7379 314.067 18.8853C313.745 20.0328 313.585 21.3562 313.585 22.8555V23.8194C313.585 24.9975 313.745 26.1067 314.067 27.147C314.403 28.1721 314.885 29.0748 315.513 29.855C316.155 30.6353 316.928 31.2473 317.83 31.691C318.748 32.1347 319.789 32.3565 320.952 32.3565C322.451 32.3565 323.721 32.0505 324.761 31.4385C325.801 30.8266 326.712 30.008 327.492 28.983L330.062 31.0255C329.527 31.8363 328.846 32.6089 328.02 33.3433C327.194 34.0777 326.176 34.6744 324.968 35.1334C323.774 35.5923 322.359 35.8218 320.722 35.8218ZM339.586 15.8331V35.3629H335.341V10.5318H339.357L339.586 15.8331ZM338.577 22.0064L336.809 21.9376C336.825 20.2393 337.077 18.6711 337.567 17.233C338.056 15.7795 338.745 14.5173 339.632 13.4464C340.52 12.3754 341.575 11.5492 342.799 10.9678C344.038 10.3712 345.408 10.0728 346.907 10.0728C348.131 10.0728 349.233 10.2411 350.212 10.5777C351.191 10.899 352.025 11.4192 352.713 12.1382C353.417 12.8573 353.952 13.7906 354.32 14.938C354.687 16.0702 354.87 17.4548 354.87 19.0919V35.3629H350.602V19.046C350.602 17.7455 350.411 16.7051 350.028 15.9249C349.646 15.1293 349.087 14.5556 348.353 14.2037C347.618 13.8365 346.716 13.6529 345.645 13.6529C344.589 13.6529 343.625 13.8747 342.753 14.3184C341.896 14.7621 341.154 15.3741 340.527 16.1544C339.915 16.9346 339.433 17.8297 339.081 18.8394C338.745 19.8339 338.577 20.8895 338.577 22.0064ZM376.971 30.5435V0.112854H381.239V35.3629H377.338L376.971 30.5435ZM360.264 23.2227V22.7408C360.264 20.8436 360.493 19.1225 360.952 17.5772C361.426 16.0167 362.092 14.678 362.949 13.5611C363.821 12.4442 364.853 11.5875 366.047 10.9908C367.255 10.3788 368.602 10.0728 370.086 10.0728C371.646 10.0728 373.008 10.3482 374.171 10.899C375.349 11.4345 376.343 12.2224 377.154 13.2628C377.98 14.2878 378.631 15.5271 379.105 16.9805C379.579 18.434 379.908 20.0787 380.092 21.9146V24.0259C379.923 25.8466 379.594 27.4836 379.105 28.9371C378.631 30.3905 377.98 31.6298 377.154 32.6548C376.343 33.6799 375.349 34.4678 374.171 35.0186C372.993 35.5541 371.616 35.8218 370.04 35.8218C368.586 35.8218 367.255 35.5082 366.047 34.8809C364.853 34.2536 363.821 33.3739 362.949 32.2418C362.092 31.1096 361.426 29.7785 360.952 28.2486C360.493 26.7033 360.264 25.0281 360.264 23.2227ZM364.532 22.7408V23.2227C364.532 24.462 364.654 25.6247 364.899 26.711C365.159 27.7973 365.557 28.7535 366.093 29.5797C366.628 30.4058 367.309 31.0561 368.135 31.5303C368.961 31.9893 369.948 32.2188 371.096 32.2188C372.503 32.2188 373.658 31.9205 374.561 31.3238C375.479 30.7271 376.213 29.9392 376.764 28.96C377.315 27.9809 377.743 26.9175 378.049 25.7701V20.2393C377.866 19.3978 377.598 18.587 377.246 17.8067C376.909 17.0111 376.466 16.3074 375.915 15.6954C375.379 15.0681 374.714 14.5709 373.918 14.2037C373.138 13.8365 372.212 13.6529 371.141 13.6529C369.979 13.6529 368.977 13.8977 368.135 14.3873C367.309 14.8616 366.628 15.5194 366.093 16.3609C365.557 17.1871 365.159 18.1509 364.899 19.2525C364.654 20.3388 364.532 21.5015 364.532 22.7408ZM392.461 10.5318V35.3629H388.193V10.5318H392.461ZM387.871 3.94537C387.871 3.2569 388.078 2.67552 388.491 2.20123C388.919 1.72695 389.547 1.48981 390.373 1.48981C391.184 1.48981 391.803 1.72695 392.232 2.20123C392.675 2.67552 392.897 3.2569 392.897 3.94537C392.897 4.60325 392.675 5.16933 392.232 5.64362C391.803 6.1026 391.184 6.33209 390.373 6.33209C389.547 6.33209 388.919 6.1026 388.491 5.64362C388.078 5.16933 387.871 4.60325 387.871 3.94537ZM414.47 29.6255V10.5318H418.738V35.3629H414.676L414.47 29.6255ZM415.273 24.3931L417.04 24.3472C417.04 25.9996 416.864 27.5295 416.512 28.9371C416.175 30.3293 415.625 31.538 414.86 32.563C414.095 33.5881 413.093 34.3913 411.853 34.9727C410.614 35.5388 409.107 35.8218 407.332 35.8218C406.124 35.8218 405.014 35.6459 404.005 35.294C403.01 34.9421 402.153 34.399 401.434 33.6646C400.715 32.9302 400.157 31.974 399.759 30.796C399.377 29.6179 399.185 28.2027 399.185 26.5504V10.5318H403.431V26.5963C403.431 27.7131 403.553 28.6387 403.798 29.3731C404.058 30.0922 404.403 30.6659 404.831 31.0943C405.275 31.5074 405.764 31.7981 406.3 31.9664C406.85 32.1347 407.417 32.2188 407.998 32.2188C409.803 32.2188 411.234 31.8746 412.289 31.1861C413.345 30.4823 414.102 29.5414 414.561 28.3633C415.036 27.17 415.273 25.8466 415.273 24.3931ZM429.432 15.4659V35.3629H425.164V10.5318H429.203L429.432 15.4659ZM428.56 22.0064L426.587 21.9376C426.602 20.2393 426.824 18.6711 427.252 17.233C427.681 15.7795 428.316 14.5173 429.157 13.4464C429.999 12.3754 431.047 11.5492 432.301 10.9678C433.556 10.3712 435.009 10.0728 436.661 10.0728C437.824 10.0728 438.895 10.2411 439.874 10.5777C440.854 10.899 441.703 11.4115 442.422 12.1153C443.141 12.8191 443.699 13.7217 444.097 14.8233C444.495 15.9249 444.694 17.2559 444.694 18.8165V35.3629H440.448V19.023C440.448 17.7226 440.226 16.6822 439.783 15.9019C439.354 15.1216 438.742 14.5556 437.947 14.2037C437.151 13.8365 436.218 13.6529 435.147 13.6529C433.892 13.6529 432.844 13.8747 432.003 14.3184C431.161 14.7621 430.488 15.3741 429.983 16.1544C429.478 16.9346 429.111 17.8297 428.882 18.8394C428.667 19.8339 428.56 20.8895 428.56 22.0064ZM444.648 19.6656L441.802 20.5377C441.817 19.176 442.039 17.8679 442.468 16.6133C442.911 15.3588 443.546 14.2419 444.372 13.2628C445.214 12.2836 446.247 11.511 447.471 10.9449C448.695 10.3635 450.094 10.0728 451.67 10.0728C453.001 10.0728 454.179 10.2488 455.204 10.6006C456.245 10.9525 457.117 11.4957 457.821 12.23C458.54 12.9491 459.083 13.8747 459.45 15.0069C459.817 16.1391 460.001 17.4854 460.001 19.046V35.3629H455.732V19.0001C455.732 17.6078 455.51 16.5292 455.067 15.7642C454.638 14.9839 454.026 14.4408 453.231 14.1348C452.451 13.8135 451.517 13.6529 450.431 13.6529C449.498 13.6529 448.672 13.8135 447.952 14.1348C447.233 14.4561 446.629 14.8998 446.139 15.4659C445.65 16.0167 445.275 16.6516 445.015 17.3707C444.77 18.0897 444.648 18.8547 444.648 19.6656Z" fill="black"/>
<rect x="54.75" y="83.4126" width="7.5" height="60.4126" fill="black"/>
<path d="M58.5 89.0714L11.3016 48.79L105.698 48.79L58.5 89.0714Z" fill="black"/>
<path d="M58.5 132.285L80.4754 145.286H36.5246L58.5 132.285Z" fill="black"/>
<path d="M58.5 84.6368L19.0958 51.0073L97.9042 51.0073L58.5 84.6368Z" fill="#D9D9D9"/>
<rect x="163.75" y="83.4126" width="7.5" height="60.4126" fill="black"/>
<path d="M167.5 89.0714L120.302 48.79L214.698 48.79L167.5 89.0714Z" fill="black"/>
<path d="M167.5 132.285L189.475 145.286H145.525L167.5 132.285Z" fill="black"/>
<path d="M167.5 84.6368L128.096 51.0073L206.904 51.0073L167.5 84.6368Z" fill="#D9D9D9"/>
<rect x="272.75" y="83.4126" width="7.5" height="60.4126" fill="black"/>
<path d="M276.5 89.0714L229.302 48.79L323.698 48.79L276.5 89.0714Z" fill="black"/>
<path d="M276.5 132.285L298.475 145.286H254.525L276.5 132.285Z" fill="black"/>
<path d="M276.5 84.6368L237.096 51.0073L315.904 51.0073L276.5 84.6368Z" fill="#D9D9D9"/>
<rect x="390.75" y="83.4126" width="7.5" height="60.4126" fill="black"/>
<path d="M394.5 89.0714L347.302 48.79L441.698 48.79L394.5 89.0714Z" fill="black"/>
<path d="M394.5 132.285L416.475 145.286H372.525L394.5 132.285Z" fill="black"/>
<path d="M394.5 84.6368L355.096 51.0073L433.904 51.0073L394.5 84.6368Z" fill="#D9D9D9"/>
</svg>
